<?xml version="1.0" encoding="UTF-8"?>
<svg id="Layer_2" data-name="Layer 2" xmlns="http://www.w3.org/2000/svg" viewBox="0 0 483.41 56.69">
  <defs>
    <style>
      .cls-1 {
        fill: #f8f7f2;
      }
    </style>
  </defs>
  <g id="Layer_1-2" data-name="Layer 1">
    <g>
      <g>
        <path class="cls-1" d="M49.1,0H5.46C2.44,0,0,2.69,0,6.01v27.29h54.56V6.01C54.56,2.69,52.12,0,49.1,0Z"/>
        <path class="cls-1" d="M0,48.99c0,3.08,2.44,5.58,5.46,5.58h43.65c3.01,0,5.46-2.5,5.46-5.58v-5.34H0v5.34Z"/>
      </g>
      <g>
        <g>
          <path class="cls-1" d="M99.81,0v26.71h-7.17v-9.35c0-2.1.15-4.88.34-6.6l-.19-.08c-.69,1.41-1.83,3.24-3.24,5.19l-4.16,5.65h-1.26l-4.16-5.65c-1.45-1.95-2.63-3.78-3.32-5.19l-.19.08c.23,1.72.42,4.5.42,6.6v9.35h-7.14V0h6.64l8.47,11.71L93.18,0h6.64Z"/>
          <path class="cls-1" d="M125.24,22.21h-10.95l-1.79,4.5h-7.56L116.16,0h7.52l11.14,26.71h-7.82l-1.76-4.5ZM118.22,10.84l-1.87,5.42h6.83l-1.91-5.61c-.72-2.14-1.14-3.43-1.41-4.27h-.15c-.31.95-.69,2.1-1.49,4.46Z"/>
          <path class="cls-1" d="M150.7,15.91v10.8h-7.25v-10.72l-10.04-15.99h8.39l3.13,5.57c.84,1.53,1.72,3.21,2.1,4.43h.15c.31-.88,1.26-2.67,2.25-4.35l3.28-5.65h8.39l-10.42,15.91Z"/>
          <path class="cls-1" d="M179.98,22.21h-10.95l-1.79,4.5h-7.56L170.9,0h7.52l11.14,26.71h-7.82l-1.76-4.5ZM172.96,10.84l-1.87,5.42h6.83l-1.91-5.61c-.73-2.14-1.14-3.43-1.41-4.27h-.15c-.31.95-.69,2.1-1.49,4.46Z"/>
          <path class="cls-1" d="M194.65,0h6.56l7.67,10.84c1.37,1.95,2.52,3.59,3.55,5.11l.19-.11c-.5-2.14-.65-5.15-.65-9.16V0h7.02v26.71h-6.56l-7.71-10.84c-1.56-2.21-2.67-3.82-3.47-5.04l-.19.08c.42,1.72.61,5.11.61,9.12v6.68h-7.02V0Z"/>
          <path class="cls-1" d="M251.76,26.71h-9.35l-4.73-5.65c-1.56-1.87-2.9-3.7-3.74-5.11l-.19.08c.23,1.72.42,4.5.42,6.98v3.7h-7.14V0h7.14v3.55c0,2.48-.19,5.27-.42,6.98l.19.08c.88-1.37,2.33-3.24,3.85-5.19l4.27-5.42h8.66l-10.91,13.09,11.94,13.62Z"/>
          <path class="cls-1" d="M277.25,18.09h-1.79v8.62h-7.25V0h12.25c5.76,0,9.88,3.7,9.88,9.04,0,3.93-2.1,6.83-5.72,8.24l7.36,9.42h-8.51l-6.22-8.62ZM279.51,5.8h-4.12v6.94h4.12c2.4,0,3.7-1.18,3.7-3.36,0-2.33-1.3-3.59-3.7-3.59Z"/>
          <path class="cls-1" d="M315.26,22.21h-10.95l-1.79,4.5h-7.56l11.22-26.71h7.52l11.14,26.71h-7.82l-1.76-4.5ZM308.24,10.84l-1.87,5.42h6.83l-1.91-5.61c-.72-2.14-1.14-3.43-1.41-4.27h-.15c-.31.95-.69,2.1-1.49,4.46Z"/>
          <path class="cls-1" d="M324,0h7.78l3.01,10.04c.53,1.83,1.03,3.74,1.53,6.6h.19c.65-2.75.99-3.89,2.1-6.94l3.51-9.69h4.73l3.55,9.5c1.14,3.09,1.64,5,2.14,7.14h.19c.38-1.87,1.07-4.54,1.76-6.98l2.67-9.65h7.67l-9.04,26.71h-5.91l-3.13-8.85c-.88-2.52-1.83-5.65-2.21-7.02h-.15c-.34,1.37-1.22,4.31-2.21,7.14l-3.05,8.74h-5.8l-9.31-26.71Z"/>
          <path class="cls-1" d="M410.5,0v26.71h-7.17v-9.35c0-2.1.15-4.88.34-6.6l-.19-.08c-.69,1.41-1.83,3.24-3.24,5.19l-4.16,5.65h-1.26l-4.16-5.65c-1.45-1.95-2.63-3.78-3.32-5.19l-.19.08c.23,1.72.42,4.5.42,6.6v9.35h-7.14V0h6.64l8.47,11.71,8.32-11.71h6.64Z"/>
          <path class="cls-1" d="M417.6,0h7.25v26.71h-7.25V0Z"/>
          <path class="cls-1" d="M431.85,0h6.56l7.67,10.84c1.37,1.95,2.52,3.59,3.55,5.11l.19-.11c-.5-2.14-.65-5.15-.65-9.16V0h7.02v26.71h-6.56l-7.71-10.84c-1.56-2.21-2.67-3.82-3.47-5.04l-.19.08c.42,1.72.61,5.11.61,9.12v6.68h-7.02V0Z"/>
          <path class="cls-1" d="M483.41,5.99h-7.82v20.72h-7.25V5.99h-7.75V0h22.82v5.99Z"/>
        </g>
        <g>
          <path class="cls-1" d="M69.75,52.31v-14.56h1.97v14.56h-1.97ZM71.07,46.64v-1.72h3.96c.55,0,1.03-.11,1.46-.34s.76-.54,1.01-.94c.24-.4.37-.89.37-1.45s-.12-1.04-.37-1.45c-.24-.4-.58-.72-1.01-.94s-.91-.33-1.46-.33h-3.96v-1.72h4.07c.89,0,1.7.18,2.41.55s1.28.88,1.69,1.54c.41.66.62,1.45.62,2.36s-.21,1.68-.62,2.35c-.41.67-.98,1.19-1.69,1.55s-1.52.54-2.41.54h-4.07Z"/>
          <path class="cls-1" d="M82.13,52.31v-9.97h1.89v9.97h-1.89ZM84.01,46.64l-.71-.33c0-1.27.29-2.29.88-3.04s1.43-1.13,2.54-1.13c.5,0,.96.09,1.36.26.4.17.78.46,1.13.87l-1.24,1.28c-.21-.22-.44-.38-.69-.48-.25-.1-.55-.15-.88-.15-.7,0-1.27.22-1.72.67s-.67,1.13-.67,2.06Z"/>
          <path class="cls-1" d="M94.84,52.52c-1.01,0-1.91-.23-2.7-.68-.79-.46-1.42-1.07-1.88-1.86-.46-.78-.69-1.67-.69-2.67s.23-1.86.68-2.64c.46-.78,1.07-1.4,1.85-1.86.78-.45,1.65-.68,2.61-.68.91,0,1.72.21,2.43.63s1.27,1,1.67,1.74c.4.74.6,1.59.6,2.54,0,.14,0,.29-.02.45s-.04.34-.08.53h-8.41v-1.57h7.41l-.69.61c0-.67-.12-1.24-.36-1.71-.24-.47-.57-.83-1.01-1.09-.43-.26-.96-.39-1.57-.39s-1.21.14-1.7.42c-.49.28-.87.67-1.13,1.17-.27.5-.4,1.1-.4,1.78s.14,1.31.42,1.84c.28.52.68.93,1.2,1.22.52.29,1.11.43,1.78.43.56,0,1.07-.1,1.54-.29.47-.19.87-.49,1.21-.88l1.22,1.24c-.49.56-1.08.99-1.76,1.28-.69.29-1.42.44-2.2.44Z"/>
          <path class="cls-1" d="M106.03,52.52c-.98,0-1.86-.23-2.66-.69-.79-.46-1.41-1.09-1.87-1.88-.45-.79-.68-1.67-.68-2.63s.23-1.86.68-2.64c.46-.78,1.08-1.4,1.87-1.86s1.68-.68,2.66-.68c.77,0,1.48.14,2.14.43s1.22.7,1.7,1.25l-1.26,1.26c-.31-.36-.69-.64-1.13-.83-.45-.19-.93-.28-1.45-.28-.63,0-1.19.14-1.68.43-.49.29-.87.68-1.15,1.19-.28.5-.42,1.08-.42,1.74s.14,1.24.42,1.74c.28.5.66.9,1.15,1.2.49.29,1.05.44,1.68.44.53,0,1.02-.09,1.46-.28.44-.19.82-.46,1.14-.83l1.24,1.26c-.46.53-1.02.94-1.69,1.24s-1.38.44-2.15.44Z"/>
          <path class="cls-1" d="M112.7,40.35c-.35,0-.64-.12-.86-.35s-.33-.52-.33-.87.11-.62.33-.85c.22-.23.51-.34.86-.34s.64.11.86.34c.22.23.34.52.34.85s-.11.64-.34.87-.51.35-.86.35ZM111.73,52.31v-9.97h1.91v9.97h-1.91Z"/>
          <path class="cls-1" d="M119.6,52.52c-.56,0-1.09-.07-1.59-.22s-.96-.36-1.37-.63c-.41-.27-.77-.6-1.08-.98l1.22-1.22c.36.45.78.78,1.26,1,.47.22,1.01.32,1.59.32s1.04-.1,1.36-.3c.32-.2.48-.48.48-.85s-.13-.65-.39-.85c-.26-.2-.59-.37-1-.5s-.84-.26-1.29-.39c-.45-.13-.88-.3-1.29-.5-.41-.21-.74-.5-1-.87s-.39-.86-.39-1.46.14-1.12.43-1.56c.29-.44.69-.78,1.23-1.02.53-.24,1.17-.36,1.91-.36.78,0,1.48.14,2.09.41.61.27,1.11.68,1.5,1.23l-1.22,1.22c-.29-.36-.64-.64-1.05-.84-.41-.2-.87-.29-1.38-.29-.55,0-.96.1-1.25.29-.29.2-.43.45-.43.78s.12.59.38.78c.25.18.58.34,1,.46.41.12.84.25,1.29.39s.87.31,1.28.53c.4.22.74.52,1,.9.26.38.39.87.39,1.49,0,.94-.33,1.68-1,2.22-.66.54-1.56.82-2.68.82Z"/>
          <path class="cls-1" d="M126.36,40.35c-.35,0-.64-.12-.86-.35s-.33-.52-.33-.87.11-.62.33-.85c.22-.23.51-.34.86-.34s.64.11.86.34c.22.23.34.52.34.85s-.11.64-.34.87-.51.35-.86.35ZM125.39,52.31v-9.97h1.91v9.97h-1.91Z"/>
          <path class="cls-1" d="M134.62,52.52c-.96,0-1.84-.23-2.62-.69-.78-.46-1.41-1.09-1.87-1.88-.46-.79-.69-1.68-.69-2.66s.23-1.84.69-2.61c.46-.78,1.08-1.4,1.87-1.86.78-.46,1.66-.69,2.62-.69s1.86.23,2.66.68c.79.45,1.42,1.07,1.88,1.86.46.78.69,1.66.69,2.62s-.23,1.86-.69,2.66c-.46.79-1.09,1.42-1.88,1.88-.79.46-1.68.69-2.66.69ZM134.62,50.69c.64,0,1.21-.15,1.7-.44.49-.29.87-.7,1.15-1.21s.42-1.09.42-1.75-.14-1.22-.43-1.72c-.29-.5-.67-.9-1.15-1.19-.48-.29-1.05-.43-1.69-.43s-1.17.14-1.66.43c-.49.29-.87.68-1.15,1.19-.28.5-.42,1.08-.42,1.72s.14,1.24.42,1.75c.28.51.66.91,1.15,1.21.49.29,1.04.44,1.66.44Z"/>
          <path class="cls-1" d="M141.95,52.31v-9.97h1.89v9.97h-1.89ZM148.98,52.31v-5.81c0-.75-.23-1.38-.7-1.87-.47-.49-1.08-.73-1.84-.73-.5,0-.95.11-1.34.33s-.7.53-.92.92c-.23.39-.34.84-.34,1.34l-.78-.44c0-.75.17-1.43.5-2.01.34-.59.8-1.05,1.41-1.4.6-.34,1.28-.51,2.04-.51s1.42.19,2,.57,1.04.87,1.37,1.48c.33.61.5,1.26.5,1.94v6.19h-1.91Z"/>
          <path class="cls-1" d="M158.12,52.31v-14.56h1.97v14.56h-1.97ZM159.45,52.31v-1.72h4.41c.84,0,1.5-.25,1.97-.74.48-.5.71-1.09.71-1.79,0-.48-.1-.9-.31-1.28s-.51-.68-.91-.91c-.4-.23-.87-.34-1.42-.34h-4.45v-1.72h4.15c.71,0,1.28-.18,1.69-.56.41-.37.62-.91.62-1.61s-.22-1.23-.65-1.61c-.43-.37-1.02-.55-1.74-.55h-4.07v-1.72h4.13c.95,0,1.75.17,2.38.51.64.34,1.12.79,1.45,1.35.33.56.49,1.17.49,1.85,0,.78-.21,1.47-.64,2.06s-1.05,1.05-1.88,1.38l.17-.63c.94.33,1.67.84,2.19,1.52.52.68.79,1.48.79,2.4,0,.77-.19,1.46-.57,2.08-.38.62-.92,1.11-1.63,1.48-.71.37-1.57.56-2.59.56h-4.3Z"/>
          <path class="cls-1" d="M170.86,52.31v-9.97h1.89v9.97h-1.89ZM172.75,46.64l-.71-.33c0-1.27.29-2.29.88-3.04s1.43-1.13,2.54-1.13c.5,0,.96.09,1.36.26.4.17.78.46,1.13.87l-1.24,1.28c-.21-.22-.44-.38-.69-.48-.25-.1-.55-.15-.88-.15-.7,0-1.27.22-1.72.67s-.67,1.13-.67,2.06Z"/>
          <path class="cls-1" d="M183.2,52.52c-.92,0-1.75-.23-2.49-.68-.73-.46-1.31-1.07-1.74-1.86-.43-.78-.64-1.66-.64-2.64s.21-1.86.64-2.65c.43-.78,1.01-1.41,1.74-1.87.73-.46,1.56-.69,2.49-.69.76,0,1.43.16,2.03.47.59.31,1.07.75,1.44,1.3.36.55.57,1.19.61,1.92v3c-.04.71-.24,1.35-.6,1.91-.36.56-.84,1-1.44,1.31-.6.32-1.28.47-2.04.47ZM183.51,50.73c.94,0,1.69-.32,2.27-.95.57-.64.86-1.45.86-2.44,0-.67-.13-1.27-.4-1.78-.27-.52-.63-.92-1.1-1.21-.47-.29-1.02-.43-1.65-.43s-1.19.15-1.67.44c-.48.29-.86.69-1.13,1.21-.27.51-.41,1.09-.41,1.75s.14,1.26.41,1.77.65.91,1.14,1.21c.49.29,1.05.44,1.68.44ZM186.51,52.31v-2.69l.36-2.43-.36-2.41v-2.44h1.91v9.97h-1.91Z"/>
          <path class="cls-1" d="M194.34,52.52c-.56,0-1.09-.07-1.59-.22s-.96-.36-1.37-.63c-.41-.27-.77-.6-1.08-.98l1.22-1.22c.36.45.78.78,1.26,1,.47.22,1.01.32,1.59.32s1.04-.1,1.36-.3c.32-.2.48-.48.48-.85s-.13-.65-.39-.85c-.26-.2-.59-.37-1-.5s-.84-.26-1.29-.39c-.45-.13-.88-.3-1.29-.5-.41-.21-.74-.5-1-.87s-.39-.86-.39-1.46.14-1.12.43-1.56c.29-.44.69-.78,1.23-1.02.53-.24,1.17-.36,1.91-.36.78,0,1.48.14,2.09.41.61.27,1.11.68,1.5,1.23l-1.22,1.22c-.29-.36-.64-.64-1.05-.84-.41-.2-.87-.29-1.38-.29-.55,0-.96.1-1.25.29-.29.2-.43.45-.43.78s.12.59.38.78c.25.18.58.34,1,.46.41.12.84.25,1.29.39s.87.31,1.28.53c.4.22.74.52,1,.9.26.38.39.87.39,1.49,0,.94-.33,1.68-1,2.22-.66.54-1.56.82-2.68.82Z"/>
          <path class="cls-1" d="M203.3,52.52c-.56,0-1.09-.07-1.59-.22s-.96-.36-1.37-.63c-.41-.27-.77-.6-1.08-.98l1.22-1.22c.36.45.78.78,1.26,1,.47.22,1.01.32,1.59.32s1.04-.1,1.36-.3c.32-.2.48-.48.48-.85s-.13-.65-.39-.85c-.26-.2-.59-.37-1-.5s-.84-.26-1.29-.39c-.45-.13-.88-.3-1.29-.5-.41-.21-.74-.5-1-.87s-.39-.86-.39-1.46.14-1.12.43-1.56c.29-.44.69-.78,1.23-1.02.53-.24,1.17-.36,1.91-.36.78,0,1.48.14,2.09.41.61.27,1.11.68,1.5,1.23l-1.22,1.22c-.29-.36-.64-.64-1.05-.84-.41-.2-.87-.29-1.38-.29-.55,0-.96.1-1.25.29-.29.2-.43.45-.43.78s.12.59.38.78c.25.18.58.34,1,.46.41.12.84.25,1.29.39s.87.31,1.28.53c.4.22.74.52,1,.9.26.38.39.87.39,1.49,0,.94-.33,1.68-1,2.22-.66.54-1.56.82-2.68.82Z"/>
          <path class="cls-1" d="M213.77,52.31v-14.56h1.97v14.56h-1.97ZM215.11,39.55v-1.8h7.95v1.8h-7.95ZM215.11,45.91v-1.8h7.6v1.8h-7.6Z"/>
          <path class="cls-1" d="M226.27,40.35c-.35,0-.64-.12-.86-.35s-.33-.52-.33-.87.11-.62.33-.85c.22-.23.51-.34.86-.34s.64.11.86.34c.22.23.34.52.34.85s-.11.64-.34.87-.51.35-.86.35ZM225.31,52.31v-9.97h1.91v9.97h-1.91Z"/>
          <path class="cls-1" d="M229.09,44.06v-1.72h12.74v1.72h-12.74ZM231.54,52.31v-14.14h1.89v14.14h-1.89ZM237.48,52.31v-14.14h1.89v14.14h-1.89Z"/>
          <path class="cls-1" d="M244.63,40.35c-.35,0-.64-.12-.86-.35s-.33-.52-.33-.87.11-.62.33-.85c.22-.23.51-.34.86-.34s.64.11.86.34c.22.23.34.52.34.85s-.11.64-.34.87-.51.35-.86.35ZM243.67,52.31v-9.97h1.91v9.97h-1.91Z"/>
          <path class="cls-1" d="M248.37,52.31v-9.97h1.89v9.97h-1.89ZM255.4,52.31v-5.81c0-.75-.23-1.38-.7-1.87-.47-.49-1.08-.73-1.84-.73-.5,0-.95.11-1.34.33s-.7.53-.92.92c-.23.39-.34.84-.34,1.34l-.78-.44c0-.75.17-1.43.5-2.01.34-.59.8-1.05,1.41-1.4.6-.34,1.28-.51,2.04-.51s1.42.19,2,.57,1.04.87,1.37,1.48c.33.61.5,1.26.5,1.94v6.19h-1.91Z"/>
          <path class="cls-1" d="M264,52.14c-.91,0-1.72-.22-2.45-.65s-1.29-1.03-1.71-1.79c-.42-.76-.63-1.62-.63-2.57s.21-1.8.62-2.55c.41-.75.98-1.34,1.71-1.78s1.54-.66,2.43-.66c.78,0,1.48.16,2.09.46s1.09.74,1.44,1.29c.35.55.54,1.2.59,1.94v2.64c-.04.73-.24,1.37-.6,1.92-.36.55-.84.98-1.44,1.29-.6.31-1.29.46-2.06.46ZM264,56.69c-1.04,0-1.94-.19-2.73-.57-.78-.38-1.42-.91-1.91-1.59l1.24-1.24c.41.52.89.91,1.45,1.19s1.22.41,1.99.41c1.01,0,1.81-.27,2.41-.81.6-.54.9-1.26.9-2.17v-2.48l.33-2.25-.33-2.22v-2.62h1.89v9.57c0,.95-.22,1.79-.66,2.51s-1.06,1.28-1.85,1.68-1.7.6-2.74.6ZM264.36,50.36c.63,0,1.17-.13,1.64-.4.46-.27.82-.64,1.08-1.12.26-.48.39-1.05.39-1.69s-.13-1.21-.39-1.69c-.26-.48-.62-.86-1.09-1.13-.47-.27-1.01-.41-1.63-.41s-1.18.14-1.66.41c-.48.27-.85.65-1.12,1.13-.27.48-.41,1.04-.41,1.67s.14,1.19.41,1.68c.27.49.65.87,1.13,1.14.48.27,1.03.41,1.65.41Z"/>
          <path class="cls-1" d="M275.16,52.52c-.56,0-1.09-.07-1.59-.22s-.96-.36-1.37-.63c-.41-.27-.77-.6-1.08-.98l1.22-1.22c.36.45.78.78,1.26,1,.47.22,1.01.32,1.59.32s1.04-.1,1.36-.3c.32-.2.48-.48.48-.85s-.13-.65-.39-.85c-.26-.2-.59-.37-1-.5s-.84-.26-1.29-.39c-.45-.13-.88-.3-1.29-.5-.41-.21-.74-.5-1-.87s-.39-.86-.39-1.46.14-1.12.43-1.56c.29-.44.69-.78,1.23-1.02.53-.24,1.17-.36,1.91-.36.78,0,1.48.14,2.09.41.61.27,1.11.68,1.5,1.23l-1.22,1.22c-.29-.36-.64-.64-1.05-.84-.41-.2-.87-.29-1.38-.29-.55,0-.96.1-1.25.29-.29.2-.43.45-.43.78s.12.59.38.78c.25.18.58.34,1,.46.41.12.84.25,1.29.39s.87.31,1.28.53c.4.22.74.52,1,.9.26.38.39.87.39,1.49,0,.94-.33,1.68-1,2.22-.66.54-1.56.82-2.68.82Z"/>
          <path class="cls-1" d="M289.96,52.52c-.96,0-1.81-.19-2.54-.57s-1.29-.9-1.7-1.56c-.41-.66-.61-1.42-.61-2.28s.24-1.68.72-2.39c.48-.71,1.17-1.28,2.07-1.7l.92,1.17c-.56.28-1,.66-1.32,1.14-.32.48-.48,1.06-.48,1.73,0,.54.12,1.01.38,1.41.25.39.6.7,1.06.91s.98.32,1.56.32c.73,0,1.35-.15,1.88-.46.52-.31.92-.7,1.19-1.17l1.24,1.45c-.28.39-.65.74-1.1,1.04-.46.3-.96.53-1.51.7-.55.17-1.14.25-1.75.25ZM295.16,52.31l-6.97-7.47c-.53-.59-.93-1.15-1.2-1.68-.26-.53-.4-1.12-.4-1.76,0-.74.17-1.4.52-1.98s.83-1.04,1.45-1.38c.61-.34,1.32-.51,2.12-.51.59,0,1.12.09,1.61.28.48.19.91.44,1.28.74.37.31.68.66.93,1.05l-1.36,1.24c-.32-.45-.68-.8-1.07-1.07-.39-.27-.85-.4-1.38-.4-.63,0-1.15.19-1.57.57-.42.38-.63.86-.63,1.45,0,.5.1.93.31,1.28.21.35.52.75.94,1.22l7.74,8.44h-2.33Z"/>
          <path class="cls-1" d="M303.01,52.31v-14.56h1.38l6.17,10.13h-.94l6.17-10.13h1.38v14.56h-1.97v-11.1l.44.12-4.85,7.99h-1.41l-4.85-7.99.44-.12v11.1h-1.97Z"/>
          <path class="cls-1" d="M324.89,52.52c-1.01,0-1.91-.23-2.7-.68-.79-.46-1.42-1.07-1.88-1.86-.46-.78-.69-1.67-.69-2.67s.23-1.86.68-2.64c.46-.78,1.07-1.4,1.85-1.86.78-.45,1.65-.68,2.61-.68.91,0,1.72.21,2.43.63.71.42,1.27,1,1.67,1.74.4.74.6,1.59.6,2.54,0,.14,0,.29-.02.45s-.04.34-.08.53h-8.41v-1.57h7.41l-.69.61c0-.67-.12-1.24-.36-1.71-.24-.47-.57-.83-1.01-1.09-.43-.26-.96-.39-1.57-.39s-1.21.14-1.7.42c-.49.28-.87.67-1.13,1.17s-.4,1.1-.4,1.78.14,1.31.42,1.84c.28.52.68.93,1.2,1.22.52.29,1.11.43,1.78.43.56,0,1.07-.1,1.54-.29.47-.19.87-.49,1.21-.88l1.22,1.24c-.49.56-1.08.99-1.76,1.28-.69.29-1.42.44-2.2.44Z"/>
          <path class="cls-1" d="M330.3,44.06v-1.72h6.8v1.72h-6.8ZM332.76,52.31v-14.14h1.89v14.14h-1.89Z"/>
          <path class="cls-1" d="M342.87,52.52c-.92,0-1.75-.23-2.49-.68-.73-.46-1.31-1.07-1.74-1.86s-.64-1.66-.64-2.64.21-1.86.64-2.65c.43-.78,1.01-1.41,1.74-1.87.73-.46,1.56-.69,2.49-.69.76,0,1.43.16,2.03.47.59.31,1.07.75,1.44,1.3.36.55.57,1.19.61,1.92v3c-.04.71-.24,1.35-.6,1.91-.36.56-.84,1-1.44,1.31-.6.32-1.28.47-2.04.47ZM343.19,50.73c.94,0,1.69-.32,2.27-.95.57-.64.86-1.45.86-2.44,0-.67-.13-1.27-.4-1.78-.27-.52-.63-.92-1.1-1.21-.47-.29-1.02-.43-1.65-.43s-1.19.15-1.67.44c-.48.29-.86.69-1.13,1.21-.27.51-.41,1.09-.41,1.75s.14,1.26.41,1.77.65.91,1.14,1.21c.49.29,1.05.44,1.68.44ZM346.19,52.31v-2.69l.36-2.43-.36-2.41v-2.44h1.91v9.97h-1.91Z"/>
          <path class="cls-1" d="M350.85,52.31v-14.98h1.89v14.98h-1.89Z"/>
          <path class="cls-1" d="M366.79,52.52c-1.05,0-2.02-.19-2.92-.58s-1.68-.92-2.34-1.61-1.18-1.48-1.54-2.39c-.36-.91-.54-1.88-.54-2.92s.18-2.03.54-2.94c.36-.91.87-1.7,1.53-2.38s1.43-1.21,2.33-1.59c.89-.38,1.86-.58,2.9-.58,1.16,0,2.17.2,3.04.59.87.39,1.64.92,2.31,1.59l-1.36,1.36c-.46-.52-1.03-.92-1.7-1.22s-1.43-.44-2.29-.44c-.76,0-1.45.14-2.1.41s-1.2.66-1.68,1.16c-.48.5-.84,1.1-1.1,1.78-.26.69-.39,1.43-.39,2.25s.13,1.56.39,2.25c.26.68.62,1.28,1.1,1.78.47.5,1.03.89,1.68,1.16.64.27,1.35.41,2.12.41.91,0,1.7-.15,2.37-.45.67-.3,1.24-.71,1.7-1.23l1.36,1.36c-.67.68-1.46,1.22-2.36,1.62-.9.39-1.92.59-3.05.59Z"/>
          <path class="cls-1" d="M378.48,52.52c-.96,0-1.84-.23-2.62-.69-.78-.46-1.41-1.09-1.87-1.88-.46-.79-.69-1.68-.69-2.66s.23-1.84.69-2.61c.46-.78,1.08-1.4,1.87-1.86.78-.46,1.66-.69,2.62-.69s1.86.23,2.66.68c.79.45,1.42,1.07,1.88,1.86.46.78.69,1.66.69,2.62s-.23,1.86-.69,2.66c-.46.79-1.09,1.42-1.88,1.88-.79.46-1.68.69-2.66.69ZM378.48,50.69c.64,0,1.21-.15,1.7-.44.49-.29.87-.7,1.15-1.21s.42-1.09.42-1.75-.14-1.22-.43-1.72c-.29-.5-.67-.9-1.15-1.19-.48-.29-1.05-.43-1.69-.43s-1.17.14-1.66.43c-.49.29-.87.68-1.15,1.19-.28.5-.42,1.08-.42,1.72s.14,1.24.42,1.75c.28.51.66.91,1.15,1.21.49.29,1.04.44,1.66.44Z"/>
          <path class="cls-1" d="M385.8,52.31v-9.97h1.89v9.97h-1.89ZM392.54,52.31v-6.02c0-.74-.23-1.33-.68-1.75-.45-.43-1.02-.64-1.71-.64-.46,0-.87.1-1.24.29-.36.19-.66.47-.88.82-.23.35-.34.78-.34,1.28l-.78-.4c0-.75.16-1.41.49-1.97.33-.56.78-1,1.35-1.31.57-.32,1.22-.47,1.93-.47s1.33.16,1.9.46,1.01.74,1.34,1.3c.33.56.49,1.22.49,1.99v6.42h-1.89ZM399.27,52.31v-6.02c0-.74-.23-1.33-.68-1.75-.46-.43-1.02-.64-1.69-.64-.46,0-.88.1-1.25.29-.37.19-.67.47-.89.82s-.34.78-.34,1.28l-1.07-.4c.04-.77.25-1.43.62-1.98.37-.55.85-.99,1.44-1.3.59-.32,1.23-.47,1.93-.47s1.38.16,1.95.46,1.03.74,1.37,1.3c.34.56.51,1.23.51,2.01v6.4h-1.91Z"/>
          <path class="cls-1" d="M403.74,56.48v-14.14h1.89v2.62l-.36,2.41.36,2.44v6.67h-1.89ZM408.99,52.52c-.75,0-1.44-.16-2.05-.47-.61-.31-1.09-.75-1.46-1.31-.36-.56-.57-1.2-.61-1.91v-3c.04-.73.25-1.37.62-1.92.37-.55.86-.99,1.47-1.3.61-.32,1.28-.47,2.03-.47.91,0,1.73.23,2.47.69.73.46,1.31,1.08,1.73,1.87.42.78.63,1.66.63,2.65s-.21,1.86-.63,2.64c-.42.78-1,1.4-1.73,1.86-.73.45-1.56.68-2.47.68ZM408.67,50.73c.63,0,1.18-.15,1.66-.44.48-.29.85-.69,1.12-1.21s.41-1.1.41-1.77-.13-1.24-.41-1.75c-.27-.51-.65-.91-1.12-1.21-.47-.29-1.03-.44-1.66-.44s-1.16.15-1.64.44c-.47.29-.85.69-1.11,1.21-.27.51-.4,1.1-.4,1.77s.13,1.24.39,1.75c.26.51.63.91,1.11,1.21s1.03.44,1.65.44Z"/>
          <path class="cls-1" d="M420.49,52.52c-.96,0-1.84-.23-2.62-.69-.78-.46-1.41-1.09-1.87-1.88-.46-.79-.69-1.68-.69-2.66s.23-1.84.69-2.61c.46-.78,1.08-1.4,1.87-1.86.78-.46,1.66-.69,2.62-.69s1.86.23,2.66.68c.79.45,1.42,1.07,1.88,1.86.46.78.69,1.66.69,2.62s-.23,1.86-.69,2.66c-.46.79-1.09,1.42-1.88,1.88-.79.46-1.68.69-2.66.69ZM420.49,50.69c.64,0,1.21-.15,1.7-.44.49-.29.87-.7,1.15-1.21s.42-1.09.42-1.75-.14-1.22-.43-1.72c-.29-.5-.67-.9-1.15-1.19-.48-.29-1.05-.43-1.69-.43s-1.17.14-1.66.43c-.49.29-.87.68-1.15,1.19-.28.5-.42,1.08-.42,1.72s.14,1.24.42,1.75c.28.51.66.91,1.15,1.21.49.29,1.04.44,1.66.44Z"/>
          <path class="cls-1" d="M427.81,52.31v-9.97h1.89v9.97h-1.89ZM434.84,52.31v-5.81c0-.75-.23-1.38-.7-1.87-.47-.49-1.08-.73-1.84-.73-.5,0-.95.11-1.34.33s-.7.53-.92.92c-.23.39-.34.84-.34,1.34l-.78-.44c0-.75.17-1.43.5-2.01.34-.59.8-1.05,1.41-1.4.6-.34,1.28-.51,2.04-.51s1.42.19,2,.57,1.04.87,1.37,1.48c.33.61.5,1.26.5,1.94v6.19h-1.91Z"/>
          <path class="cls-1" d="M443.92,52.52c-1.01,0-1.91-.23-2.7-.68-.79-.46-1.42-1.07-1.88-1.86-.46-.78-.69-1.67-.69-2.67s.23-1.86.68-2.64c.46-.78,1.07-1.4,1.85-1.86.78-.45,1.65-.68,2.61-.68.91,0,1.72.21,2.43.63.71.42,1.27,1,1.67,1.74.4.74.6,1.59.6,2.54,0,.14,0,.29-.02.45s-.04.34-.08.53h-8.41v-1.57h7.41l-.69.61c0-.67-.12-1.24-.36-1.71-.24-.47-.57-.83-1.01-1.09-.43-.26-.96-.39-1.57-.39s-1.21.14-1.7.42c-.49.28-.87.67-1.13,1.17s-.4,1.1-.4,1.78.14,1.31.42,1.84c.28.52.68.93,1.2,1.22.52.29,1.11.43,1.78.43.56,0,1.07-.1,1.54-.29.47-.19.87-.49,1.21-.88l1.22,1.24c-.49.56-1.08.99-1.76,1.28-.69.29-1.42.44-2.2.44Z"/>
          <path class="cls-1" d="M450.55,52.31v-9.97h1.89v9.97h-1.89ZM457.58,52.31v-5.81c0-.75-.23-1.38-.7-1.87-.47-.49-1.08-.73-1.84-.73-.5,0-.95.11-1.34.33s-.7.53-.92.92c-.23.39-.34.84-.34,1.34l-.78-.44c0-.75.17-1.43.5-2.01.34-.59.8-1.05,1.41-1.4.6-.34,1.28-.51,2.04-.51s1.42.19,2,.57,1.04.87,1.37,1.48c.33.61.5,1.26.5,1.94v6.19h-1.91Z"/>
          <path class="cls-1" d="M461,44.06v-1.72h6.8v1.72h-6.8ZM463.46,52.31v-14.14h1.89v14.14h-1.89Z"/>
          <path class="cls-1" d="M472.61,52.52c-.56,0-1.09-.07-1.59-.22s-.96-.36-1.37-.63c-.41-.27-.77-.6-1.08-.98l1.22-1.22c.36.45.78.78,1.26,1,.47.22,1.01.32,1.59.32s1.04-.1,1.36-.3c.32-.2.48-.48.48-.85s-.13-.65-.39-.85c-.26-.2-.59-.37-1-.5s-.84-.26-1.29-.39c-.45-.13-.88-.3-1.29-.5-.41-.21-.74-.5-1-.87s-.39-.86-.39-1.46.14-1.12.43-1.56c.29-.44.69-.78,1.23-1.02.53-.24,1.17-.36,1.91-.36.78,0,1.48.14,2.09.41.61.27,1.11.68,1.5,1.23l-1.22,1.22c-.29-.36-.64-.64-1.05-.84-.41-.2-.87-.29-1.38-.29-.55,0-.96.1-1.25.29-.29.2-.43.45-.43.78s.12.59.38.78c.25.18.58.34,1,.46.41.12.84.25,1.29.39s.87.31,1.28.53c.4.22.74.52,1,.9.26.38.39.87.39,1.49,0,.94-.33,1.68-1,2.22-.66.54-1.56.82-2.68.82Z"/>
        </g>
      </g>
    </g>
  </g>
</svg>