<?xml version="1.0" encoding="UTF-8"?>
<svg id="Layer_2" data-name="Layer 2" xmlns="http://www.w3.org/2000/svg" viewBox="0 0 678.6 229.58">
  <defs>
    <style>
      .cls-1 {
        fill: #016b4a;
      }
    </style>
  </defs>
  <g id="Layer_1-2" data-name="Layer 1">
    <g>
      <g>
        <path class="cls-1" d="M127.56,0H14.17C6.35,0,0,6.87,0,15.34v69.7h141.73V15.34c0-8.47-6.35-15.34-14.17-15.34Z"/>
        <path class="cls-1" d="M0,127.25C0,135.25,6.35,141.73,14.17,141.73h113.39c7.83,0,14.17-6.48,14.17-14.48v-13.86H0v13.86Z"/>
      </g>
      <g>
        <path class="cls-1" d="M220.7,0h11.91v56.69h-13.2V21.22l-16.68,20.41h-2.59l-16.85-20.49v35.55h-13.2V0h11.91l19.36,24.13L220.7,0Z"/>
        <path class="cls-1" d="M296.83,56.69l-4.21-10.2h-27.94l-4.21,10.2h-14.17L271.72,0h14.17l25.27,56.69h-14.34ZM278.77,12.72l-9.31,22.35h18.47l-9.15-22.35Z"/>
        <path class="cls-1" d="M370.37,0l-23.08,34.5v22.19h-13.2v-22.19L311.81,0h15.55l13.44,22.03,13.77-22.03h15.79Z"/>
        <path class="cls-1" d="M421.47,56.69l-4.21-10.2h-27.94l-4.21,10.2h-14.17L396.36,0h14.17l25.27,56.69h-14.34ZM403.41,12.72l-9.31,22.35h18.47l-9.15-22.35Z"/>
        <path class="cls-1" d="M486.91,0h13.2v56.69h-11.91l-25.67-35.07.16,15.31v19.76h-13.2V0h11.91l25.67,35.23-.16-15.15V0Z"/>
        <path class="cls-1" d="M570.9,56.69h-17.25l-19.92-22.52v22.52h-13.2V0h13.2v22.19l18.63-22.19h16.36l-23.89,27.78,26.08,28.91Z"/>
      </g>
      <g>
        <path class="cls-1" d="M191.05,123.02h-7.69v18.71h-13.28v-56.69h27.62c4.1,0,7.69.8,10.77,2.39,3.08,1.59,5.45,3.85,7.13,6.76,1.67,2.92,2.51,6.26,2.51,10.04,0,4.32-1.12,8.02-3.36,11.1-2.24,3.08-5.41,5.26-9.52,6.56l16.04,19.84h-15.79l-14.42-18.71ZM202.68,98.48c-1.54-1.4-3.71-2.11-6.52-2.11h-12.88v15.96h12.88c2.86,0,5.05-.69,6.56-2.07,1.51-1.38,2.27-3.33,2.27-5.87s-.77-4.51-2.31-5.91Z"/>
        <path class="cls-1" d="M280.63,141.73l-4.21-10.2h-27.94l-4.21,10.2h-14.17l25.43-56.69h14.17l25.27,56.69h-14.34ZM262.57,97.75l-9.31,22.35h18.47l-9.15-22.35Z"/>
        <path class="cls-1" d="M369.68,85.04h14.5l-19.84,56.69h-12.55l-5.35-15.79-6.48-19.03-6.32,19.03-5.43,15.79h-12.31l-19.92-56.69h14.5l7.13,22.6,4.62,16.12,12.88-38.71h9.56l13.2,38.96,4.94-16.36,6.88-22.6Z"/>
        <path class="cls-1" d="M475.65,85.04h11.91v56.69h-13.2v-35.47l-16.68,20.41h-2.59l-16.85-20.49v35.55h-13.2v-56.69h11.91l19.36,24.13,19.36-24.13Z"/>
        <path class="cls-1" d="M507.97,85.04h13.28v56.69h-13.28v-56.69Z"/>
        <path class="cls-1" d="M579.16,85.04h13.2v56.69h-11.91l-25.67-35.07.16,15.31v19.76h-13.2v-56.69h11.91l25.67,35.23-.16-15.15v-20.09Z"/>
        <path class="cls-1" d="M655.77,85.04v11.58h-17.33v45.11h-13.28v-45.11h-17.25v-11.58h47.87Z"/>
        <path class="cls-1" d="M664.64,139.79c-1.38-1.3-2.06-2.94-2.06-4.94s.69-3.64,2.06-4.94c1.38-1.3,3.14-1.94,5.31-1.94s3.85.65,5.22,1.94c1.38,1.3,2.07,2.94,2.07,4.94s-.69,3.64-2.07,4.94c-1.38,1.3-3.12,1.94-5.22,1.94s-3.93-.65-5.31-1.94Z"/>
      </g>
      <g>
        <path class="cls-1" d="M0,216.3v-44.1h5.97v44.1H0ZM4,199.14v-5.21h12.01c1.65,0,3.12-.34,4.42-1.02,1.29-.68,2.31-1.63,3.05-2.86.74-1.23,1.11-2.69,1.11-4.38s-.37-3.15-1.11-4.38c-.74-1.23-1.76-2.18-3.05-2.86-1.29-.68-2.76-1.02-4.42-1.02H4v-5.21h12.33c2.71,0,5.15.55,7.31,1.65,2.16,1.1,3.87,2.66,5.11,4.67,1.25,2.01,1.87,4.4,1.87,7.15s-.63,5.08-1.87,7.12c-1.25,2.03-2.95,3.6-5.11,4.7-2.16,1.1-4.6,1.65-7.31,1.65H4Z"/>
        <path class="cls-1" d="M39.08,216.3v-30.18h5.72v30.18h-5.72ZM44.79,199.14l-2.16-1.02c0-3.85.89-6.93,2.67-9.21s4.34-3.43,7.69-3.43c1.52,0,2.9.27,4.13.79,1.23.53,2.37,1.41,3.43,2.64l-3.75,3.88c-.64-.68-1.33-1.16-2.1-1.46-.76-.3-1.65-.45-2.67-.45-2.12,0-3.85.68-5.21,2.03-1.36,1.36-2.03,3.43-2.03,6.23Z"/>
        <path class="cls-1" d="M79.17,216.93c-3.05,0-5.77-.69-8.17-2.07-2.39-1.38-4.29-3.25-5.69-5.62-1.4-2.37-2.1-5.06-2.1-8.07s.69-5.63,2.07-8.01c1.38-2.37,3.24-4.25,5.59-5.62,2.35-1.38,4.99-2.07,7.91-2.07,2.75,0,5.21.64,7.37,1.91,2.16,1.27,3.84,3.03,5.05,5.27,1.21,2.25,1.81,4.81,1.81,7.69,0,.42-.02.88-.06,1.37-.04.49-.13,1.03-.25,1.62h-25.48v-4.77h22.43l-2.1,1.84c0-2.03-.36-3.76-1.08-5.18-.72-1.42-1.74-2.52-3.05-3.3-1.31-.78-2.9-1.18-4.77-1.18s-3.66.42-5.15,1.27c-1.48.85-2.63,2.03-3.43,3.56-.81,1.52-1.21,3.33-1.21,5.4s.42,3.97,1.27,5.56c.85,1.59,2.05,2.82,3.62,3.69,1.57.87,3.37,1.3,5.4,1.3,1.69,0,3.25-.3,4.67-.89,1.42-.59,2.64-1.48,3.65-2.67l3.69,3.75c-1.48,1.7-3.26,2.99-5.34,3.88-2.08.89-4.3,1.33-6.67,1.33Z"/>
        <path class="cls-1" d="M114.63,216.93c-2.97,0-5.65-.7-8.04-2.1-2.39-1.4-4.28-3.29-5.66-5.69-1.38-2.39-2.07-5.05-2.07-7.97s.69-5.63,2.07-8.01c1.38-2.37,3.26-4.25,5.66-5.62,2.39-1.38,5.07-2.07,8.04-2.07,2.33,0,4.49.44,6.48,1.3,1.99.87,3.71,2.13,5.15,3.78l-3.81,3.81c-.93-1.1-2.08-1.94-3.43-2.51-1.36-.57-2.82-.86-4.38-.86-1.91,0-3.6.43-5.08,1.3-1.48.87-2.65,2.07-3.49,3.59-.85,1.53-1.27,3.28-1.27,5.27s.42,3.75,1.27,5.27c.85,1.53,2.01,2.73,3.49,3.62,1.48.89,3.18,1.33,5.08,1.33,1.61,0,3.08-.29,4.42-.86,1.33-.57,2.49-1.41,3.46-2.51l3.75,3.81c-1.4,1.61-3.1,2.86-5.11,3.75-2.01.89-4.18,1.33-6.51,1.33Z"/>
        <path class="cls-1" d="M136.42,180.08c-1.06,0-1.93-.35-2.61-1.05-.68-.7-1.02-1.58-1.02-2.64s.34-1.87,1.02-2.57c.68-.7,1.55-1.05,2.61-1.05s1.93.35,2.6,1.05c.68.7,1.02,1.56,1.02,2.57s-.34,1.94-1.02,2.64c-.68.7-1.55,1.05-2.6,1.05ZM133.5,216.3v-30.18h5.78v30.18h-5.78Z"/>
        <path class="cls-1" d="M158.91,216.93c-1.69,0-3.3-.22-4.83-.67-1.53-.45-2.91-1.08-4.16-1.91-1.25-.83-2.34-1.81-3.27-2.95l3.69-3.69c1.1,1.36,2.37,2.36,3.81,3.02,1.44.66,3.05.99,4.83.99s3.16-.31,4.13-.92c.97-.61,1.46-1.47,1.46-2.57s-.39-1.96-1.18-2.57c-.78-.61-1.79-1.12-3.02-1.53-1.23-.4-2.53-.79-3.91-1.18-1.38-.38-2.68-.89-3.91-1.52-1.23-.64-2.23-1.51-3.02-2.64-.78-1.12-1.18-2.59-1.18-4.42s.43-3.4,1.3-4.73c.87-1.33,2.11-2.36,3.72-3.08,1.61-.72,3.54-1.08,5.78-1.08,2.37,0,4.48.41,6.32,1.24,1.84.83,3.36,2.07,4.54,3.72l-3.69,3.69c-.89-1.1-1.95-1.95-3.18-2.54-1.23-.59-2.63-.89-4.19-.89-1.65,0-2.91.3-3.78.89-.87.59-1.3,1.38-1.3,2.35s.38,1.8,1.14,2.35c.76.55,1.77,1.02,3.02,1.4,1.25.38,2.55.77,3.91,1.17,1.36.4,2.65.94,3.88,1.62,1.23.68,2.23,1.59,3.02,2.73.78,1.14,1.18,2.65,1.18,4.51,0,2.84-1.01,5.08-3.02,6.74-2.01,1.65-4.71,2.48-8.1,2.48Z"/>
        <path class="cls-1" d="M180.96,180.08c-1.06,0-1.93-.35-2.6-1.05-.68-.7-1.02-1.58-1.02-2.64s.34-1.87,1.02-2.57c.68-.7,1.55-1.05,2.6-1.05s1.93.35,2.61,1.05c.68.7,1.02,1.56,1.02,2.57s-.34,1.94-1.02,2.64c-.68.7-1.55,1.05-2.61,1.05ZM178.04,216.3v-30.18h5.78v30.18h-5.78Z"/>
        <path class="cls-1" d="M207.58,216.93c-2.92,0-5.57-.7-7.94-2.1-2.37-1.4-4.26-3.29-5.66-5.69-1.4-2.39-2.1-5.07-2.1-8.04s.7-5.56,2.1-7.91c1.4-2.35,3.28-4.23,5.66-5.62,2.37-1.4,5.02-2.1,7.94-2.1s5.64.69,8.04,2.07c2.39,1.38,4.29,3.25,5.69,5.62,1.4,2.37,2.1,5.02,2.1,7.94s-.7,5.65-2.1,8.04c-1.4,2.39-3.29,4.29-5.69,5.69s-5.07,2.1-8.04,2.1ZM207.58,211.41c1.95,0,3.66-.44,5.15-1.33,1.48-.89,2.65-2.11,3.49-3.65.85-1.55,1.27-3.31,1.27-5.31s-.44-3.69-1.3-5.21c-.87-1.52-2.03-2.72-3.49-3.59-1.46-.87-3.17-1.3-5.11-1.3s-3.54.43-5.02,1.3c-1.48.87-2.65,2.07-3.49,3.59-.85,1.53-1.27,3.26-1.27,5.21s.42,3.76,1.27,5.31c.85,1.55,2.01,2.76,3.49,3.65,1.48.89,3.16,1.33,5.02,1.33Z"/>
        <path class="cls-1" d="M231.35,216.3v-30.18h5.72v30.18h-5.72ZM252.63,216.3v-17.6c0-2.29-.71-4.17-2.13-5.66-1.42-1.48-3.27-2.22-5.56-2.22-1.53,0-2.88.34-4.07,1.02-1.19.68-2.12,1.61-2.8,2.8-.68,1.19-1.02,2.54-1.02,4.07l-2.35-1.33c0-2.29.51-4.32,1.52-6.1,1.02-1.78,2.44-3.19,4.26-4.23,1.82-1.04,3.88-1.56,6.16-1.56s4.31.57,6.07,1.72c1.76,1.14,3.15,2.64,4.16,4.48,1.02,1.84,1.53,3.8,1.53,5.88v18.74h-5.78Z"/>
        <path class="cls-1" d="M283.51,216.3v-44.1h4.19l18.68,30.69h-2.86l18.68-30.69h4.19v44.1h-5.97v-33.61l1.33.38-14.68,24.21h-4.26l-14.68-24.21,1.33-.38v33.61h-5.97Z"/>
        <path class="cls-1" d="M351.37,216.93c-3.05,0-5.77-.69-8.16-2.07-2.39-1.38-4.29-3.25-5.69-5.62-1.4-2.37-2.1-5.06-2.1-8.07s.69-5.63,2.06-8.01c1.38-2.37,3.24-4.25,5.59-5.62,2.35-1.38,4.99-2.07,7.91-2.07,2.75,0,5.21.64,7.37,1.91,2.16,1.27,3.84,3.03,5.05,5.27,1.21,2.25,1.81,4.81,1.81,7.69,0,.42-.02.88-.06,1.37-.04.49-.13,1.03-.25,1.62h-25.48v-4.77h22.43l-2.1,1.84c0-2.03-.36-3.76-1.08-5.18-.72-1.42-1.74-2.52-3.05-3.3s-2.9-1.18-4.77-1.18-3.66.42-5.15,1.27c-1.48.85-2.63,2.03-3.43,3.56-.8,1.52-1.21,3.33-1.21,5.4s.42,3.97,1.27,5.56c.85,1.59,2.05,2.82,3.62,3.69,1.57.87,3.37,1.3,5.4,1.3,1.69,0,3.25-.3,4.67-.89,1.42-.59,2.64-1.48,3.65-2.67l3.69,3.75c-1.48,1.7-3.26,2.99-5.34,3.88-2.08.89-4.3,1.33-6.67,1.33Z"/>
        <path class="cls-1" d="M369.35,191.33v-5.21h20.59v5.21h-20.59ZM376.79,216.3v-42.83h5.72v42.83h-5.72Z"/>
        <path class="cls-1" d="M409,216.93c-2.79,0-5.31-.69-7.53-2.07-2.22-1.38-3.98-3.25-5.27-5.62-1.29-2.37-1.94-5.04-1.94-8.01s.65-5.63,1.94-8.01c1.29-2.37,3.05-4.26,5.27-5.66,2.22-1.4,4.73-2.1,7.53-2.1,2.29,0,4.33.48,6.13,1.43,1.8.95,3.25,2.27,4.35,3.94,1.1,1.67,1.72,3.61,1.84,5.81v9.09c-.13,2.16-.73,4.09-1.81,5.78-1.08,1.7-2.53,3.02-4.35,3.97-1.82.95-3.88,1.43-6.16,1.43ZM409.95,211.53c2.84,0,5.12-.96,6.86-2.89,1.74-1.93,2.61-4.39,2.61-7.4,0-2.03-.4-3.83-1.21-5.4-.81-1.57-1.92-2.79-3.34-3.65-1.42-.87-3.08-1.3-4.99-1.3s-3.59.45-5.05,1.33-2.61,2.11-3.43,3.65c-.83,1.55-1.24,3.32-1.24,5.31s.41,3.82,1.24,5.37c.83,1.55,1.98,2.76,3.46,3.65,1.48.89,3.18,1.33,5.08,1.33ZM419.04,216.3v-8.13l1.08-7.37-1.08-7.31v-7.37h5.78v30.18h-5.78Z"/>
        <path class="cls-1" d="M434.73,216.3v-45.37h5.72v45.37h-5.72Z"/>
        <path class="cls-1" d="M466.18,216.3v-44.1h5.97v44.1h-5.97ZM470.25,177.67v-5.46h24.08v5.46h-24.08ZM470.25,196.92v-5.46h23v5.46h-23Z"/>
        <path class="cls-1" d="M505.64,180.08c-1.06,0-1.93-.35-2.6-1.05-.68-.7-1.02-1.58-1.02-2.64s.34-1.87,1.02-2.57c.68-.7,1.55-1.05,2.6-1.05s1.93.35,2.61,1.05c.68.7,1.02,1.56,1.02,2.57s-.34,1.94-1.02,2.64c-.68.7-1.55,1.05-2.61,1.05ZM502.72,216.3v-30.18h5.78v30.18h-5.78Z"/>
        <path class="cls-1" d="M515.75,191.33v-5.21h20.59v5.21h-20.59ZM523.18,216.3v-42.83h5.72v42.83h-5.72Z"/>
        <path class="cls-1" d="M539.57,191.33v-5.21h20.59v5.21h-20.59ZM547.01,216.3v-42.83h5.72v42.83h-5.72Z"/>
        <path class="cls-1" d="M570.26,180.08c-1.06,0-1.93-.35-2.6-1.05-.68-.7-1.02-1.58-1.02-2.64s.34-1.87,1.02-2.57c.68-.7,1.55-1.05,2.6-1.05s1.93.35,2.61,1.05c.68.7,1.02,1.56,1.02,2.57s-.34,1.94-1.02,2.64c-.68.7-1.55,1.05-2.61,1.05ZM567.34,216.3v-30.18h5.78v30.18h-5.78Z"/>
        <path class="cls-1" d="M583.16,216.3v-30.18h5.72v30.18h-5.72ZM604.45,216.3v-17.6c0-2.29-.71-4.17-2.13-5.66-1.42-1.48-3.27-2.22-5.56-2.22-1.53,0-2.88.34-4.07,1.02-1.19.68-2.12,1.61-2.8,2.8-.68,1.19-1.02,2.54-1.02,4.07l-2.35-1.33c0-2.29.51-4.32,1.52-6.1,1.02-1.78,2.44-3.19,4.26-4.23,1.82-1.04,3.88-1.56,6.16-1.56s4.31.57,6.07,1.72c1.76,1.14,3.15,2.64,4.16,4.48,1.02,1.84,1.53,3.8,1.53,5.88v18.74h-5.78Z"/>
        <path class="cls-1" d="M632.09,215.79c-2.75,0-5.22-.66-7.4-1.97-2.18-1.31-3.91-3.12-5.18-5.43-1.27-2.31-1.91-4.9-1.91-7.78s.62-5.45,1.87-7.72c1.25-2.27,2.98-4.07,5.18-5.4,2.2-1.33,4.66-2,7.37-2,2.37,0,4.48.47,6.32,1.4,1.84.93,3.29,2.24,4.35,3.91,1.06,1.67,1.65,3.63,1.78,5.88v8.01c-.13,2.2-.73,4.14-1.81,5.81-1.08,1.67-2.53,2.98-4.35,3.91-1.82.93-3.9,1.4-6.23,1.4ZM632.09,229.58c-3.14,0-5.89-.57-8.26-1.71-2.37-1.14-4.3-2.75-5.78-4.83l3.75-3.75c1.23,1.57,2.69,2.76,4.38,3.59,1.69.83,3.71,1.24,6.04,1.24,3.05,0,5.49-.82,7.31-2.45,1.82-1.63,2.73-3.82,2.73-6.58v-7.5l1.02-6.8-1.02-6.74v-7.94h5.72v28.97c0,2.88-.67,5.41-2,7.59-1.33,2.18-3.2,3.88-5.59,5.08-2.39,1.21-5.16,1.81-8.29,1.81ZM633.17,210.39c1.91,0,3.56-.4,4.96-1.21s2.49-1.94,3.27-3.4c.78-1.46,1.18-3.17,1.18-5.11s-.39-3.65-1.18-5.11c-.78-1.46-1.88-2.6-3.3-3.43-1.42-.83-3.06-1.24-4.92-1.24s-3.58.41-5.02,1.24-2.57,1.97-3.4,3.43c-.83,1.46-1.24,3.15-1.24,5.05s.41,3.6,1.24,5.08,1.97,2.64,3.43,3.46c1.46.83,3.12,1.24,4.99,1.24Z"/>
        <path class="cls-1" d="M667.48,216.93c-1.69,0-3.3-.22-4.83-.67-1.53-.45-2.91-1.08-4.16-1.91-1.25-.83-2.34-1.81-3.27-2.95l3.69-3.69c1.1,1.36,2.37,2.36,3.81,3.02,1.44.66,3.05.99,4.83.99s3.16-.31,4.13-.92c.97-.61,1.46-1.47,1.46-2.57s-.39-1.96-1.17-2.57c-.78-.61-1.79-1.12-3.02-1.53-1.23-.4-2.53-.79-3.91-1.18-1.38-.38-2.68-.89-3.91-1.52-1.23-.64-2.24-1.51-3.02-2.64-.78-1.12-1.18-2.59-1.18-4.42s.43-3.4,1.3-4.73c.87-1.33,2.11-2.36,3.72-3.08,1.61-.72,3.54-1.08,5.78-1.08,2.37,0,4.48.41,6.32,1.24,1.84.83,3.36,2.07,4.54,3.72l-3.69,3.69c-.89-1.1-1.95-1.95-3.18-2.54-1.23-.59-2.63-.89-4.19-.89-1.65,0-2.91.3-3.78.89-.87.59-1.3,1.38-1.3,2.35s.38,1.8,1.14,2.35,1.77,1.02,3.02,1.4c1.25.38,2.55.77,3.91,1.17,1.36.4,2.65.94,3.88,1.62,1.23.68,2.23,1.59,3.02,2.73.78,1.14,1.18,2.65,1.18,4.51,0,2.84-1.01,5.08-3.02,6.74-2.01,1.65-4.71,2.48-8.1,2.48Z"/>
      </g>
    </g>
  </g>
</svg>